# xmcd
#
# Track frame offsets:
#	151
#	15006
#	29543
#	35669
#	42379
#	45114
#	54721
#	59859
#	62453
#	63768
#	81973
#	102201
#	108156
#	118919
#	125975
#	136173
#	141546
#	145373
#	146944
#	153035
#	163375
#	180611
#	191981
#	194562
#	200256
#	212977
#	226756
#	232383
#	236490
#	249514
#	255507
#
# Disc length: 3664 seconds
#
# Revision: 1
# Processed by: cddbd v1.4PL0 Copyright (c) Steve Scherf et al.
# Submitted via: audiograbber 1.81.02
#
DISCID=d70e4e1f
DTITLE=Pasxalis Terzis - Zontani Hxografisi puli aksiou
DYEAR=2002
DGENRE=Pop
TTITLE0=Paliokairos
TTITLE1=ase me na vro ton eauton mou
TTITLE2=ti se niazei
TTITLE3=Den me katalabes pote
TTITLE4=dose mou mia eukairia
TTITLE5=feugontas
TTITLE6=giati feggari
TTITLE7=tis zois mou ta feggaria
TTITLE8=ma pou na pao
TTITLE9=den thelo tetious filous
TTITLE10=tzibaeri
TTITLE11=ti na sou kano
TTITLE12=me skotose giati tin agapousa
TTITLE13=ego ton Theo mou ton thelo aliti
TTITLE14=mpors gremos kai pios esi
TTITLE15=zito ta paraloga
TTITLE16=mi perimeneis pia
TTITLE17=tipiki diadikasia
TTITLE18=ti na sou kano
TTITLE19=Yparxo
TTITLE20=Mana mou
TTITLE21=fantasia mou planeftra
TTITLE22=tha ithela na isouna edo
TTITLE23=tha ithela na isoun edo
TTITLE24=bale sti porta to klisi
TTITLE25=rotisa ta matia mou
TTITLE26=eimai monos mou
TTITLE27=eimai monos mou
TTITLE28=s'akoloutho
TTITLE29=Ola se thimizoun
TTITLE30=Filoi
EXTD=greek
EXTT0=
EXTT1=
EXTT2=
EXTT3=
EXTT4=
EXTT5=
EXTT6=
EXTT7=
EXTT8=
EXTT9=
EXTT10=
EXTT11=
EXTT12=
EXTT13=
EXTT14=
EXTT15=
EXTT16=
EXTT17=
EXTT18=
EXTT19=
EXTT20=
EXTT21=
EXTT22=
EXTT23=
EXTT24=
EXTT25=
EXTT26=
EXTT27=
EXTT28=
EXTT29=
EXTT30=
PLAYORDER=
